<svg xmlns="http://www.w3.org/2000/svg" width="44" height="42" viewBox="0 0 44 42">
  <g id="icons8_bot" transform="translate(-2 -2)">
    <path id="Tracé_79" data-name="Tracé 79" d="M23,4h2V15H23ZM42,21a2,2,0,0,1,4,0V35a2,2,0,0,1-4,0ZM2,21a2,2,0,0,1,4,0V35a2,2,0,0,1-4,0Z"/>
    <path id="Tracé_80" data-name="Tracé 80" d="M28,6a4.012,4.012,0,0,1-4,4,5.9,5.9,0,0,1-1.4-.2C21.1,9.2,21.1,6,21.1,6L24,2.5s1.9-.1,2.6.5A3.749,3.749,0,0,1,28,6ZM43,30.1v9.3C43,42.8,28.3,44,24.6,44H23.4C19.7,44,5,42.8,5,39.4V30.1C5,20.7,13.4,13,23.4,13h1.2C34.6,13,43,20.7,43,30.1Z" fill="#2aaae4"/>
    <path id="Tracé_81" data-name="Tracé 81" d="M32.5,24A6.5,6.5,0,1,0,39,30.5,6.5,6.5,0,0,0,32.5,24Zm-17,0A6.5,6.5,0,1,0,22,30.5,6.5,6.5,0,0,0,15.5,24Z"/>
    <g id="Groupe_59" data-name="Groupe 59">
      <path id="Tracé_82" data-name="Tracé 82" d="M15.5,26A4.5,4.5,0,1,0,20,30.5,4.5,4.5,0,0,0,15.5,26Zm17,0A4.5,4.5,0,1,0,37,30.5,4.5,4.5,0,0,0,32.5,26Z" fill="#fff9c4"/>
    </g>
    <g id="Groupe_60" data-name="Groupe 60">
      <path id="Tracé_83" data-name="Tracé 83" d="M15.5,28A2.5,2.5,0,1,0,18,30.5,2.5,2.5,0,0,0,15.5,28Zm17,0A2.5,2.5,0,1,0,35,30.5,2.5,2.5,0,0,0,32.5,28Z" fill="#2aaae4"/>
    </g>
    <g id="Groupe_61" data-name="Groupe 61">
      <path id="Tracé_84" data-name="Tracé 84" d="M22,7a3.775,3.775,0,0,0,1.3,2.9A3.891,3.891,0,0,1,20,6a4.012,4.012,0,0,1,4-4,3.864,3.864,0,0,1,2.7,1.1A1.483,1.483,0,0,0,26,3,4.012,4.012,0,0,0,22,7ZM5,30.1v9.3c0,1,1.2,1.8,3,2.4V31.7A18.725,18.725,0,0,1,25.5,13H23.4C13.4,13,5,20.7,5,30.1Z"/>
    </g>
  </g>
</svg>
