<svg xmlns="http://www.w3.org/2000/svg" xmlns:xlink="http://www.w3.org/1999/xlink" width="139.751" height="139.751" viewBox="0 0 139.751 139.751">
  <defs>
    <linearGradient id="linear-gradient" x1="0.5" x2="0.5" y2="1" gradientUnits="objectBoundingBox">
      <stop offset="0" stop-color="#2aaae4"/>
      <stop offset="1" stop-color="#f1df85"/>
    </linearGradient>
  </defs>
  <g id="Groupe_70" data-name="Groupe 70" transform="translate(-615 -235)">
    <g id="Groupe_9" data-name="Groupe 9" transform="translate(-408.63 -213.63)">
      <circle id="Ellipse_2" data-name="Ellipse 2" cx="69.875" cy="69.875" r="69.875" transform="translate(1023.63 448.63)" fill="url(#linear-gradient)"/>
    </g>
    <g id="Layer_1" data-name="Layer 1" transform="translate(632.556 253)">
      <path id="Tracé_53" data-name="Tracé 53" d="M49.886,26.6l-2.3-3.254,2.45-1.73-1.075-1.524-2.45,1.73-1.2-1.7L48.6,17.811,47.487,16.24l-5.237,3.7,5.677,8.047Z" transform="translate(-22.494 -8.646)"/>
      <path id="Tracé_54" data-name="Tracé 54" d="M63.749,19.337,62.178,15.97l.524-.243,3.385,2.5,2.474-1.141-3.708-2.576a3.016,3.016,0,0,0,1.019-1.683,2.941,2.941,0,0,0-.252-1.819,3.161,3.161,0,0,0-1.038-1.258A2.806,2.806,0,0,0,63,9.26a4.437,4.437,0,0,0-1.969.468l-3.647,1.7,4.171,8.931Zm-3.32-7.117,1.351-.631a1.375,1.375,0,0,1,1.033-.112,1.164,1.164,0,0,1,.669.664,1.206,1.206,0,0,1,.089.963,1.351,1.351,0,0,1-.786.711l-1.347.631Z" transform="translate(-30.549 -4.93)"/>
      <path id="Tracé_55" data-name="Tracé 55" d="M84.766,12.25A5.087,5.087,0,0,0,87.1,11.062a4.816,4.816,0,0,0,1.4-2.156,5.144,5.144,0,0,0,.084-2.689,5.055,5.055,0,0,0-1.22-2.385A4.713,4.713,0,0,0,85.2,2.482a5.078,5.078,0,0,0-2.623-.07A5.144,5.144,0,0,0,80.235,3.6a4.788,4.788,0,0,0-1.4,2.156,4.942,4.942,0,0,0-.094,2.679,5.027,5.027,0,0,0,1.234,2.389,4.788,4.788,0,0,0,2.188,1.356A5.078,5.078,0,0,0,84.766,12.25ZM81.124,7.9a2.969,2.969,0,0,1,.229-2.2A2.483,2.483,0,0,1,83.041,4.53a2.427,2.427,0,0,1,2.011.346,2.979,2.979,0,0,1,1.15,1.87,2.983,2.983,0,0,1-.238,2.179,2.394,2.394,0,0,1-1.679,1.169,2.436,2.436,0,0,1-2.025-.341A2.974,2.974,0,0,1,81.124,7.9Z" transform="translate(-41.846 -1.21)"/>
      <path id="Tracé_56" data-name="Tracé 56" d="M105.2,3.811l3.914,6.14,2.4.037L111.668.14,109.27.1l-.1,6.1L105.258.037,102.864,0,102.7,9.848l2.4.037Z" transform="translate(-54.678)"/>
      <path id="Tracé_57" data-name="Tracé 57" d="M126.555,10.995l2.352.486,1.609-7.762,2.553.528.393-1.88L126,.82,125.61,2.7l2.558.528Z" transform="translate(-66.875 -0.437)"/>
      <path id="Tracé_58" data-name="Tracé 58" d="M144.5,16.912l.7-1.791-3.381-1.328.79-2.011,2.988,1.174.678-1.721-2.993-1.174.729-1.856,3.381,1.328.7-1.791-5.611-2.2-3.6,9.165Z" transform="translate(-73.94 -2.95)"/>
      <path id="Tracé_59" data-name="Tracé 59" d="M154.235,22.065l3.259-5.125.126,7.276,2.02,1.291,5.288-8.309L162.9,15.912l-3.273,5.148-.112-7.3L157.5,12.47l-5.288,8.3Z" transform="translate(-81.037 -6.639)"/>
      <path id="Tracé_60" data-name="Tracé 60" d="M180.35,33.914a4.409,4.409,0,0,0-.051-2.5,5.709,5.709,0,0,0-1.487-2.338L176.2,26.47l-6.962,6.939,2.609,2.609a5.7,5.7,0,0,0,2.338,1.482,4.377,4.377,0,0,0,2.511.051A5.5,5.5,0,0,0,180.35,33.914Zm-3.1.547a2.838,2.838,0,0,1-2.025.935,2.913,2.913,0,0,1-2.025-.973l-.8-.786,4.049-4.049.8.8a2.637,2.637,0,0,1,0,4.068Z" transform="translate(-90.104 -14.093)"/>
      <path id="Tracé_61" data-name="Tracé 61" d="M189.3,63.209l1.234,2.221,6.883-7.888-1.342-2.432L185.73,56.765l1.216,2.2,1.81-.327,1.777,3.217Zm5.12-5.611L191.855,60.4l-1.174-2.123Z" transform="translate(-98.884 -29.341)"/>
      <path id="Tracé_62" data-name="Tracé 62" d="M197.967,78.205l6.682.051-5.924,3.058.683,2.82,10.175.168-.608-2.506-7.3.3,6.57-3.329-.627-2.562-7.379-.009,6.631-3.072-.608-2.5-8.978,4.755Z" transform="translate(-105.033 -37.604)"/>
      <path id="Tracé_63" data-name="Tracé 63" d="M202.033,105.991l1.725.636-.094,3.671-1.739.547-.065,2.539,9.936-3.311.07-2.778-9.754-3.816Zm3.558,1.314,3.572,1.3-3.633,1.127Z" transform="translate(-107.471 -55.093)"/>
      <path id="Tracé_64" data-name="Tracé 64" d="M198.965,127.175l3.619.856-.136.561-4.087,1.136-.622,2.637,4.321-1.319a2.876,2.876,0,0,0,2.268,2.806,3.091,3.091,0,0,0,1.627-.037,2.806,2.806,0,0,0,1.37-.935,4.461,4.461,0,0,0,.851-1.842l.935-3.918-9.581-2.258Zm4.928,2.693.341-1.45,2.375.561-.341,1.445a1.4,1.4,0,0,1-.542.893,1.188,1.188,0,0,1-.935.117,1.211,1.211,0,0,1-.809-.533,1.342,1.342,0,0,1-.089-1.033Z" transform="translate(-105.278 -66.476)"/>
      <path id="Tracé_65" data-name="Tracé 65" d="M193.451,145.2a5.8,5.8,0,0,0-.594,2.721,4.405,4.405,0,0,0,.809,2.375,5.143,5.143,0,0,0,2.057,1.669,5.083,5.083,0,0,0,2.6.51,4.405,4.405,0,0,0,2.338-.9,5.724,5.724,0,0,0,1.711-2.2l1.566-3.339-8.917-4.176Zm1.945.743.468-1.033,5.186,2.431-.468,1.029a2.633,2.633,0,0,1-3.825,1.4,2.806,2.806,0,0,1-1.585-1.58,2.894,2.894,0,0,1,.224-2.273Z" transform="translate(-102.677 -75.527)"/>
      <path id="Tracé_66" data-name="Tracé 66" d="M14.767,62.486l1.665.842,1.351-2.684,1.856.935-1.81,3.586,1.716.86L22.431,60.3,13.64,55.87l-1.08,2.142,3.558,1.8Z" transform="translate(-6.687 -29.745)"/>
      <path id="Tracé_67" data-name="Tracé 67" d="M7.226,80.635A2.913,2.913,0,0,0,8.75,81.664a3.133,3.133,0,0,0,1.632.061,2.834,2.834,0,0,0,1.4-.86,4.442,4.442,0,0,0,.935-1.791l1.141-3.858L4.416,72.41l-.645,2.3,3.563,1.057-.164.552-4.143.907-.767,2.6,4.381-1.052A3,3,0,0,0,7.226,80.635ZM8.54,77.684l.421-1.4,2.338.692-.421,1.4a1.375,1.375,0,0,1-.584.856,1.2,1.2,0,0,1-.935.065,1.234,1.234,0,0,1-.781-.575A1.365,1.365,0,0,1,8.54,77.67Z" transform="translate(-1.203 -38.551)"/>
      <path id="Tracé_68" data-name="Tracé 68" d="M2.327,102.567a5.055,5.055,0,0,0,2.544.86,5.017,5.017,0,0,0,2.637-.468,4.737,4.737,0,0,0,1.945-1.693,5.331,5.331,0,0,0,.374-5.078,4.882,4.882,0,0,0-1.655-1.964,5,5,0,0,0-2.539-.87,5.083,5.083,0,0,0-2.647.468,4.854,4.854,0,0,0-1.95,1.721,5.326,5.326,0,0,0-.374,5.073,4.793,4.793,0,0,0,1.665,1.95Zm.977-6.21a2.979,2.979,0,0,1,2.128-.552,2.969,2.969,0,0,1,2.034.86,2.469,2.469,0,0,1,.631,1.95,2.431,2.431,0,0,1-.935,1.824A2.979,2.979,0,0,1,5.034,101a2.988,2.988,0,0,1-2.02-.86,2.427,2.427,0,0,1-.645-1.941A2.46,2.46,0,0,1,3.3,96.357Z" transform="translate(-0.101 -49.691)"/>
      <path id="Tracé_69" data-name="Tracé 69" d="M10.708,122.586l-6.032.926,5.419-4.891-.36-2.371L0,117.746l.365,2.371,6-.926-5.4,4.891.365,2.371,9.735-1.5Z" transform="translate(0 -61.892)"/>
      <path id="Tracé_70" data-name="Tracé 70" d="M15.27,143.149l1.8-.664-2.637-7.145-1.8.664.9,2.45L6.1,141.194l.832,2.249,7.435-2.74Z" transform="translate(-3.248 -72.056)"/>
      <path id="Tracé_71" data-name="Tracé 71" d="M14.676,157.342l1.87-1.075,1.6,2.782,1.6-.921-1.6-2.787,1.725-.991L21.69,157.5l1.665-.959-3.007-5.228-8.538,4.914,3.011,5.228,1.665-.959Z" transform="translate(-6.288 -80.558)"/>
      <path id="Tracé_72" data-name="Tracé 72" d="M32.8,168.609,28.188,172.6l1.987-7.028L28.6,163.76l-7.444,6.448,1.571,1.814,4.592-3.979-1.964,7.009,1.571,1.814,7.444-6.448Z" transform="translate(-11.266 -87.187)"/>
      <path id="Tracé_73" data-name="Tracé 73" d="M46.824,181.193,43.859,179,38,186.9l2.965,2.2a5.737,5.737,0,0,0,2.544,1.122A4.442,4.442,0,0,0,46,189.9a5.144,5.144,0,0,0,2.043-1.683,5.045,5.045,0,0,0,1.019-2.445,4.419,4.419,0,0,0-.411-2.464A5.728,5.728,0,0,0,46.824,181.193Zm-.748,5.574a2.806,2.806,0,0,1-1.87,1.239,2.88,2.88,0,0,1-2.142-.669l-.935-.673,3.418-4.6.935.673a2.623,2.623,0,0,1,.6,4.021Z" transform="translate(-20.231 -95.301)"/>
      <path id="Tracé_74" data-name="Tracé 74" d="M62.73,203.4l2.338.874,1.16-1.4,3.441,1.286-.042,1.819,2.38.888.108-10.474-2.6-.973Zm7.014-1.211-2.273-.851,2.4-2.951Z" transform="translate(-33.398 -104.043)"/>
      <path id="Tracé_75" data-name="Tracé 75" d="M97.761,208.462l-1.029-7.294-2.628-.234L91.71,207.91l-.762-7.266-2.558-.234,1.6,10.035,2.89.262,2.207-6.308.977,6.6,2.894.262,3.446-9.572-2.572-.234Z" transform="translate(-47.059 -106.699)"/>
      <path id="Tracé_76" data-name="Tracé 76" d="M122.359,200.757l-1.819,10.315,2.474-.43.285-1.814,3.619-.636.879,1.613,2.5-.435-5.2-9.09Zm1.239,6.135.57-3.741,1.824,3.343Z" transform="translate(-64.176 -106.63)"/>
      <path id="Tracé_77" data-name="Tracé 77" d="M146.259,198.415a2.927,2.927,0,0,0-.136-1.838,3.147,3.147,0,0,0-.963-1.314,2.806,2.806,0,0,0-1.552-.58,4.513,4.513,0,0,0-2,.36l-3.741,1.5,3.657,9.141,2.226-.888-1.4-3.451.533-.215,3.273,2.693,2.516-1.005-3.558-2.778A2.969,2.969,0,0,0,146.259,198.415Zm-2.338.131a1.351,1.351,0,0,1-.8.669l-1.4.552-.907-2.268,1.4-.552a1.342,1.342,0,0,1,1.038-.065,1.174,1.174,0,0,1,.631.7,1.211,1.211,0,0,1,.042.991Z" transform="translate(-73.403 -103.648)"/>
      <path id="Tracé_78" data-name="Tracé 78" d="M162.221,186.042a4.4,4.4,0,0,0-2.46-.468,5.747,5.747,0,0,0-2.609.991L154.08,188.6l5.443,8.206,3.077-2.039a5.761,5.761,0,0,0,1.917-2.015,4.363,4.363,0,0,0,.547-2.45,5.494,5.494,0,0,0-2.843-4.283Zm.468,5.312a2.9,2.9,0,0,1-1.351,1.791l-.935.627L157.236,189l.935-.627a2.633,2.633,0,0,1,3.984.8,2.806,2.806,0,0,1,.519,2.193Z" transform="translate(-82.033 -98.789)"/>
    </g>
    <g id="icons8_bot" transform="translate(652.268 297.268) rotate(-30)">
      <path id="Tracé_79" data-name="Tracé 79" d="M23,4h2V15H23ZM42,21a2,2,0,0,1,4,0V35a2,2,0,0,1-4,0ZM2,21a2,2,0,0,1,4,0V35a2,2,0,0,1-4,0Z" fill="#fff"/>
      <path id="Tracé_80" data-name="Tracé 80" d="M28,6a4.012,4.012,0,0,1-4,4,5.9,5.9,0,0,1-1.4-.2C21.1,9.2,21.1,6,21.1,6L24,2.5s1.9-.1,2.6.5A3.749,3.749,0,0,1,28,6ZM43,30.1v9.3C43,42.8,28.3,44,24.6,44H23.4C19.7,44,5,42.8,5,39.4V30.1C5,20.7,13.4,13,23.4,13h1.2C34.6,13,43,20.7,43,30.1Z"/>
      <path id="Tracé_81" data-name="Tracé 81" d="M32.5,24A6.5,6.5,0,1,0,39,30.5,6.5,6.5,0,0,0,32.5,24Zm-17,0A6.5,6.5,0,1,0,22,30.5,6.5,6.5,0,0,0,15.5,24Z" fill="#ffbd04"/>
      <g id="Groupe_59" data-name="Groupe 59">
        <path id="Tracé_82" data-name="Tracé 82" d="M15.5,26A4.5,4.5,0,1,0,20,30.5,4.5,4.5,0,0,0,15.5,26Zm17,0A4.5,4.5,0,1,0,37,30.5,4.5,4.5,0,0,0,32.5,26Z" fill="#fff9c4"/>
      </g>
      <g id="Groupe_60" data-name="Groupe 60">
        <path id="Tracé_83" data-name="Tracé 83" d="M15.5,28A2.5,2.5,0,1,0,18,30.5,2.5,2.5,0,0,0,15.5,28Zm17,0A2.5,2.5,0,1,0,35,30.5,2.5,2.5,0,0,0,32.5,28Z" fill="#2aaae4"/>
      </g>
      <g id="Groupe_61" data-name="Groupe 61">
        <path id="Tracé_84" data-name="Tracé 84" d="M22,7a3.775,3.775,0,0,0,1.3,2.9A3.891,3.891,0,0,1,20,6a4.012,4.012,0,0,1,4-4,3.864,3.864,0,0,1,2.7,1.1A1.483,1.483,0,0,0,26,3,4.012,4.012,0,0,0,22,7ZM5,30.1v9.3c0,1,1.2,1.8,3,2.4V31.7A18.725,18.725,0,0,1,25.5,13H23.4C13.4,13,5,20.7,5,30.1Z" fill="#fff"/>
      </g>
    </g>
  </g>
</svg>
